<svg width="64" height="64" viewBox="0 0 64 64" fill="none" xmlns="http://www.w3.org/2000/svg">
  <circle cx="32" cy="32" r="30" fill="FILL" stroke="BORDERS" stroke-width="4" />
  <path
    d="M20.45 51C20.0167 51 19.6333 50.875 19.3 50.625C18.9667 50.375 18.8 50.05 18.8 49.65V45.45C17.8333 44.9167 17.125 44.15 16.675 43.15C16.225 42.15 16 41.0833 16 39.95V20.1C16 17.6333 17.275 15.8333 19.825 14.7C22.375 13.5667 26.45 13 32.05 13C37.5833 13 41.625 13.5667 44.175 14.7C46.725 15.8333 48 17.6333 48 20.1V39.95C48 41.0833 47.775 42.15 47.325 43.15C46.875 44.15 46.1667 44.9167 45.2 45.45V49.65C45.2 50.05 45.0333 50.375 44.7 50.625C44.3667 50.875 43.9833 51 43.55 51H42.6C42.1333 51 41.7333 50.875 41.4 50.625C41.0667 50.375 40.9 50.05 40.9 49.65V46.9H23.1V49.65C23.1 50.05 22.9333 50.375 22.6 50.625C22.2667 50.875 21.8667 51 21.4 51H20.45ZM32.05 18.8H45H19H32.05ZM40.9 33.45H19H45H40.9ZM19 30.45H45V21.8H19V30.45ZM24.3 41.4C25.0667 41.4 25.7167 41.1333 26.25 40.6C26.7833 40.0667 27.05 39.4167 27.05 38.65C27.05 37.8833 26.7833 37.2333 26.25 36.7C25.7167 36.1667 25.0667 35.9 24.3 35.9C23.5333 35.9 22.8833 36.1667 22.35 36.7C21.8167 37.2333 21.55 37.8833 21.55 38.65C21.55 39.4167 21.8167 40.0667 22.35 40.6C22.8833 41.1333 23.5333 41.4 24.3 41.4ZM39.7 41.4C40.4667 41.4 41.1167 41.1333 41.65 40.6C42.1833 40.0667 42.45 39.4167 42.45 38.65C42.45 37.8833 42.1833 37.2333 41.65 36.7C41.1167 36.1667 40.4667 35.9 39.7 35.9C38.9333 35.9 38.2833 36.1667 37.75 36.7C37.2167 37.2333 36.95 37.8833 36.95 38.65C36.95 39.4167 37.2167 40.0667 37.75 40.6C38.2833 41.1333 38.9333 41.4 39.7 41.4ZM19 18.8H45C44.2 17.9333 42.6667 17.25 40.4 16.75C38.1333 16.25 35.35 16 32.05 16C28.1167 16 25.1 16.225 23 16.675C20.9 17.125 19.5667 17.8333 19 18.8ZM23.1 43.9H40.9C42.0667 43.9 43.0417 43.45 43.825 42.55C44.6083 41.65 45 40.6167 45 39.45V33.45H19V39.45C19 40.6167 19.3917 41.65 20.175 42.55C20.9583 43.45 21.9333 43.9 23.1 43.9Z"
    fill="BORDERS" />
</svg>